<svg xmlns="http://www.w3.org/2000/svg" width="24" height="24" viewBox="0 0 24 24">
    <path fill="#4C6785" fill-rule="evenodd" d="M12 0c1.656 0 3.215.312 4.676.938 1.46.625 2.734 1.48 3.82 2.566a12.042 12.042 0 0 1 2.567 3.82C23.688 8.785 24 10.344 24 12c0 1.656-.312 3.215-.938 4.676a12.042 12.042 0 0 1-2.566 3.82 12.042 12.042 0 0 1-3.82 2.567c-1.461.625-3.02.937-4.676.937-1.656 0-3.215-.312-4.676-.938a12.042 12.042 0 0 1-3.82-2.566 12.042 12.042 0 0 1-2.567-3.82A11.762 11.762 0 0 1 0 12c0-1.656.312-3.215.938-4.676a12.042 12.042 0 0 1 2.566-3.82A12.042 12.042 0 0 1 7.324.937C8.785.313 10.344 0 12 0zm0 22.523c1.453 0 2.816-.277 4.09-.832a10.597 10.597 0 0 0 3.328-2.261 10.842 10.842 0 0 0 2.25-3.34c.555-1.274.832-2.637.832-4.09 0-1.453-.277-2.816-.832-4.09a10.697 10.697 0 0 0-2.25-3.328 10.697 10.697 0 0 0-3.328-2.25A10.129 10.129 0 0 0 12 1.5c-1.453 0-2.816.277-4.09.832a10.697 10.697 0 0 0-3.328 2.25 10.697 10.697 0 0 0-2.25 3.328A10.129 10.129 0 0 0 1.5 12c0 1.453.277 2.816.832 4.09a10.842 10.842 0 0 0 2.25 3.34A10.597 10.597 0 0 0 7.91 21.69c1.274.555 2.637.832 4.09.832zm.469-15.046a.741.741 0 0 1 .539-.235c.203 0 .383.078.539.235l4.43 4.546-4.43 4.547a1.068 1.068 0 0 1-.258.153.726.726 0 0 1-.281.058.726.726 0 0 1-.281-.058c-.094-.04-.18-.09-.258-.153a.782.782 0 0 1-.211-.539c0-.203.07-.383.21-.539l2.766-2.742H6.75a.71.71 0 0 1-.54-.223A.741.741 0 0 1 6 12a.73.73 0 0 1 .21-.54.73.73 0 0 1 .54-.21h8.438l-2.72-2.719a.715.715 0 0 1-.21-.527c0-.211.07-.387.21-.527z"/>
</svg>
