<svg xmlns="http://www.w3.org/2000/svg" width="24" height="24" viewBox="0 0 24 24">
    <path fill="#4C6785" fill-rule="evenodd" d="M12 0c-1.656 0-3.215.312-4.676.938a12.042 12.042 0 0 0-3.82 2.566 12.042 12.042 0 0 0-2.567 3.82A11.762 11.762 0 0 0 0 12c0 1.656.312 3.215.938 4.676a12.042 12.042 0 0 0 2.566 3.82 12.042 12.042 0 0 0 3.82 2.567c1.461.625 3.02.937 4.676.937 1.656 0 3.215-.312 4.676-.938a12.042 12.042 0 0 0 3.82-2.566 12.042 12.042 0 0 0 2.567-3.82c.625-1.461.937-3.02.937-4.676 0-1.656-.312-3.215-.938-4.676a12.042 12.042 0 0 0-2.566-3.82 12.042 12.042 0 0 0-3.82-2.567A11.762 11.762 0 0 0 12 0zm0 22.523c-1.453 0-2.816-.277-4.09-.832a10.597 10.597 0 0 1-3.328-2.261 10.842 10.842 0 0 1-2.25-3.34A10.129 10.129 0 0 1 1.5 12c0-1.453.277-2.816.832-4.09a10.697 10.697 0 0 1 2.25-3.328 10.697 10.697 0 0 1 3.328-2.25A10.129 10.129 0 0 1 12 1.5c1.453 0 2.816.277 4.09.832a10.697 10.697 0 0 1 3.328 2.25 10.697 10.697 0 0 1 2.25 3.328c.555 1.274.832 2.637.832 4.09 0 1.453-.277 2.816-.832 4.09a10.842 10.842 0 0 1-2.25 3.34 10.597 10.597 0 0 1-3.328 2.261 10.129 10.129 0 0 1-4.09.832zm-.469-15.046a.741.741 0 0 0-.539-.235.741.741 0 0 0-.539.235l-4.43 4.546 4.43 4.547c.078.063.164.114.258.153.094.039.187.058.281.058.094 0 .188-.02.281-.058.094-.04.18-.09.258-.153a.782.782 0 0 0 .211-.539.782.782 0 0 0-.21-.539L8.765 12.75h8.484a.71.71 0 0 0 .54-.223A.741.741 0 0 0 18 12a.73.73 0 0 0-.21-.54.73.73 0 0 0-.54-.21H8.812l2.72-2.719c.14-.14.21-.316.21-.527 0-.211-.07-.387-.21-.527z"/>
</svg>
